<svg height='300px' width='300px'  fill="#000000" xmlns="http://www.w3.org/2000/svg" xmlns:xlink="http://www.w3.org/1999/xlink" viewBox="0 0 100 100" version="1.1" x="0px" y="0px"><title>Frame</title><desc>Created using Figma</desc><g transform="translate(12107 6297)"><g><g><use xlink:href="#d" transform="translate(-12094 -6270)"></use><use xlink:href="#c" transform="translate(-12094 -6270)"></use><use xlink:href="#b" transform="translate(-12094 -6270)"></use><use xlink:href="#a" transform="translate(-12094 -6270)"></use></g></g></g><defs><path id="d" d="M 75 13.779C 75 3.15599 67.5965 -1.64208 62.7924 0.500219C 57.9883 2.64252 60.6125 27.0578 60.6125 27.0578C 58.4379 27.0578 54.9904 26.0248 51.2955 24.6367C 50.7129 24.4178 50.1239 24.1901 49.5328 23.9563C 45.8651 22.5053 42.1108 20.8169 39.2397 19.5256C 39.2397 19.5256 39.2397 19.5256 39.2397 19.5256C 39.1668 19.4928 39.0946 19.4603 39.0229 19.4281C 39.0137 19.424 39.0045 19.4198 38.9953 19.4157C 38.4617 19.1757 37.9612 18.9507 37.4999 18.7447C 36.3592 18.2356 35.4582 17.8437 34.8893 17.6341C 31.4014 16.3491 32.1616 10.1733 30.0935 9.49635C 24.8617 7.78379 26.1446 5.87847 21.8098 8.63965C 17.475 11.4008 17.8859 20.2042 20.0658 21.9176C 21.6761 23.1832 24.2378 23.7477 25.4668 23.9563C 25.9016 24.0301 26.1696 24.0594 26.1696 24.0594C 26.3653 24.2516 26.5561 24.444 26.7586 24.6367C 29.7594 27.4914 33.5041 30.3862 37.4999 33.0846C 38.0066 33.4268 38.5174 33.7659 39.0312 34.1013C 50.0345 41.2842 62.4768 46.7976 66.7163 45.9051C 72.2583 44.7383 75 27.0578 75 13.779Z"></path><path id="c" d="M 26.7586 24.6367C 26.5561 24.444 26.3653 24.2516 26.1696 24.0594C 26.1696 24.0594 25.9016 24.0301 25.4668 23.9563C 24.8758 24.1901 24.287 24.4178 23.7045 24.6366C 20.0095 26.0247 16.5621 27.0577 14.3875 27.0577C 14.3875 27.0577 17.0117 2.64243 12.2076 0.500131C 7.40347 -1.64217 0 3.15589 0 13.7789C 0 27.0577 2.74172 44.7382 8.28372 45.905C 12.5232 46.7976 24.9654 41.2842 35.9688 34.1012C 36.4825 33.7658 36.9932 33.4268 37.4999 33.0846C 33.5041 30.3862 29.7594 27.4914 26.7586 24.6367Z"></path><path id="b" d="M 39.0229 19.4281L 39.2397 19.5256L 39.2397 19.5256C 42.1108 20.8169 45.8651 22.5053 49.5328 23.9563C 50.7616 23.7477 53.3237 23.1833 54.9341 21.9175C 57.114 20.2041 57.525 11.4008 53.1902 8.63958C 48.8554 5.8784 50.1383 7.78372 44.9065 9.49627C 42.8383 10.1733 43.5985 16.349 40.1106 17.634C 39.5417 17.8436 38.6407 18.2356 37.4999 18.7447C 37.9612 18.9507 38.4617 19.1757 38.9953 19.4157L 39.0229 19.4281Z"></path><path id="a" d="M 39.0312 34.1013L 38.4846 34.9387L 38.4846 34.9387L 39.0312 34.1013ZM 26.7586 24.6367L 26.0694 25.3612L 26.0694 25.3612L 26.7586 24.6367ZM 66.7163 45.9051L 66.5103 44.9265L 66.5103 44.9265L 66.7163 45.9051ZM 26.1696 24.0594L 26.8705 23.346C 26.7102 23.1886 26.5015 23.0897 26.2782 23.0653L 26.1696 24.0594ZM 20.0658 21.9176L 19.4479 22.7038L 20.0658 21.9176ZM 30.0935 9.49635L 30.4046 8.54597L 30.4046 8.54597L 30.0935 9.49635ZM 34.8893 17.6341L 35.235 16.6958L 34.8893 17.6341ZM 60.6125 27.0578L 60.6125 28.0578C 60.8963 28.0578 61.1667 27.9372 61.3564 27.726C 61.5461 27.5149 61.6371 27.2331 61.6068 26.9509L 60.6125 27.0578ZM 51.2955 24.6367L 50.9438 25.5728L 50.9438 25.5728L 51.2955 24.6367ZM 35.9688 34.1012L 36.5154 34.9386L 36.5154 34.9386L 35.9688 34.1012ZM 12.2076 0.500131L 11.8003 1.41344L 12.2076 0.500131ZM 8.28372 45.905L 8.48973 44.9265L 8.48973 44.9265L 8.28372 45.905ZM 54.9341 21.9175L 54.3162 21.1313L 54.9341 21.9175ZM 44.9065 9.49627L 44.5954 8.54589L 44.5954 8.54589L 44.9065 9.49627ZM 40.1106 17.634L 39.7649 16.6957L 39.7649 16.6957L 40.1106 17.634ZM 14.3875 27.0577L 13.3932 26.9508C 13.3629 27.233 13.4539 27.5148 13.6436 27.726C 13.8332 27.9371 14.1037 28.0577 14.3875 28.0577L 14.3875 27.0577ZM 23.7045 24.6366L 24.0562 25.5727L 24.0562 25.5727L 23.7045 24.6366ZM 37.4999 33.0846L 38.0596 32.2559L 37.4999 33.0846ZM 25.4668 23.9563L 25.6342 22.9704L 25.4668 23.9563ZM 63.1997 1.41353C 65.1494 0.544075 67.7847 1.02748 70.02 3.0879C 72.2347 5.12936 74 8.70129 74 13.779L 76 13.779C 76 8.23371 74.0635 4.09509 71.3755 1.61733C 68.708 -0.841465 65.2395 -1.68594 62.3851 -0.413088L 63.1997 1.41353ZM 74 13.779C 74 20.3631 73.3191 28.0282 71.96 34.1679C 71.2793 37.243 70.4393 39.8844 69.4581 41.8056C 68.4471 43.785 67.4229 44.7344 66.5103 44.9265L 66.9223 46.8836C 68.7806 46.4924 70.1774 44.7941 71.2392 42.7153C 72.3307 40.5783 73.2153 37.7509 73.9127 34.6002C 75.31 28.2883 76 20.4738 76 13.779L 74 13.779ZM 22.347 9.48308C 23.4307 8.79279 24.0668 8.4596 24.5022 8.32015C 24.8569 8.20652 25.0289 8.23402 25.2483 8.32057C 25.3956 8.37871 25.5687 8.46904 25.8198 8.61266C 26.0521 8.74557 26.3702 8.93547 26.7191 9.12763C 27.447 9.52857 28.4052 9.99593 29.7824 10.4467L 30.4046 8.54597C 29.1659 8.14049 28.3225 7.72748 27.684 7.3758C 27.3497 7.19165 27.0935 7.03718 26.8129 6.87664C 26.5509 6.72682 26.2724 6.57462 25.9823 6.46013C 25.3265 6.20142 24.6795 6.16328 23.8921 6.41547C 23.1854 6.64184 22.3563 7.10592 21.2725 7.79622L 22.347 9.48308ZM 29.7824 10.4467C 29.8376 10.4648 30.0337 10.5788 30.2947 11.24C 30.544 11.8714 30.7261 12.6492 30.9965 13.6086C 31.2517 14.5135 31.576 15.5332 32.0967 16.4214C 32.6274 17.3267 33.3932 18.1487 34.5436 18.5725L 35.235 16.6958C 34.6415 16.4771 34.1944 16.0452 33.8221 15.41C 33.4397 14.7577 33.1708 13.9501 32.9215 13.0659C 32.6875 12.236 32.4539 11.2626 32.155 10.5056C 31.8679 9.77823 31.3835 8.86639 30.4046 8.54597L 29.7824 10.4467ZM 60.6125 27.0578C 61.6068 26.9509 61.6068 26.9509 61.6067 26.9508C 61.6067 26.9507 61.6067 26.9505 61.6067 26.9502C 61.6066 26.9496 61.6065 26.9486 61.6064 26.9472C 61.6061 26.9446 61.6056 26.9404 61.605 26.9348C 61.6039 26.9236 61.6021 26.9066 61.5997 26.8841C 61.595 26.8389 61.5881 26.7714 61.5792 26.6829C 61.5613 26.506 61.5358 26.2452 61.5048 25.912C 61.4429 25.2456 61.3598 24.2899 61.2748 23.136C 61.1048 20.8263 60.9284 17.7305 60.9009 14.5736C 60.8733 11.4069 60.9962 8.22201 61.4116 5.71723C 61.6198 4.46198 61.8939 3.42574 62.2332 2.66273C 62.5826 1.87686 62.9332 1.53237 63.1997 1.41353L 62.3851 -0.413088C 61.4506 0.00364259 60.8323 0.890759 60.4057 1.85014C 59.9689 2.8324 59.6599 4.05506 59.4385 5.39001C 58.9948 8.0656 58.873 11.3862 58.9009 14.5911C 58.929 17.8058 59.1083 20.9477 59.2802 23.2828C 59.3662 24.4513 59.4505 25.4198 59.5134 26.0969C 59.5448 26.4356 59.5709 26.7014 59.5892 26.8832C 59.5983 26.974 59.6055 27.0439 59.6105 27.0913C 59.6129 27.115 59.6148 27.133 59.6161 27.1453C 59.6168 27.1515 59.6173 27.1562 59.6176 27.1594C 59.6178 27.161 59.6179 27.1622 59.618 27.1631C 59.6181 27.1636 59.6181 27.1639 59.6182 27.1642C 59.6182 27.1644 59.6182 27.1646 60.6125 27.0578ZM 66.5103 44.9265C 65.6902 45.0992 64.309 44.9763 62.4012 44.4796C 60.5322 43.9931 58.2861 43.1835 55.8064 42.1133C 50.8494 39.9741 45.0382 36.8284 39.5778 33.2639L 38.4846 34.9387C 44.0276 38.5571 49.9391 41.7595 55.0139 43.9496C 57.5502 45.0441 59.8972 45.8944 61.8974 46.4151C 63.8587 46.9257 65.6226 47.1572 66.9223 46.8836L 66.5103 44.9265ZM 27.4479 23.9122C 27.2528 23.7266 27.0785 23.5504 26.8705 23.346L 25.4688 24.7727C 25.652 24.9527 25.8594 25.1615 26.0694 25.3612L 27.4479 23.9122ZM 50.9438 25.5728C 52.8076 26.273 54.6255 26.89 56.2629 27.333C 57.8859 27.7722 59.3924 28.0578 60.6125 28.0578L 60.6125 26.0578C 59.6579 26.0578 58.3534 25.8268 56.7853 25.4025C 55.2316 24.982 53.4783 24.3885 51.6471 23.7006L 50.9438 25.5728ZM 20.6838 21.1314C 20.4068 20.9137 20.0414 20.3144 19.7792 19.2659C 19.5294 18.2664 19.4151 17.0222 19.493 15.7318C 19.6527 13.0853 20.5864 10.6045 22.347 9.48308L 21.2725 7.79622C 18.6983 9.43594 17.6701 12.7375 17.4966 15.6113C 17.4079 17.0811 17.5341 18.5315 17.839 19.7509C 18.1315 20.9212 18.6349 22.0648 19.4479 22.7038L 20.6838 21.1314ZM 38.6128 20.3401C 38.6844 20.3724 38.7567 20.4048 38.8295 20.4376L 39.6498 18.6136C 39.577 18.5808 39.5047 18.5483 39.433 18.5161L 38.6128 20.3401ZM 12.6149 -0.413176C 9.76048 -1.68603 6.29197 -0.841555 3.62449 1.61724C 0.936447 4.09499 -1 8.23362 -1 13.7789L 1 13.7789C 1 8.70119 2.76529 5.12927 4.98001 3.08781C 7.21529 1.0274 9.85056 0.543987 11.8003 1.41344L 12.6149 -0.413176ZM -1 13.7789C -1 20.4737 -0.309995 28.2882 1.08725 34.6001C 1.78471 37.7508 2.66929 40.5782 3.76079 42.7153C 4.82254 44.794 6.21934 46.4923 8.0777 46.8836L 8.48973 44.9265C 7.57709 44.7343 6.55293 43.785 5.54192 41.8055C 4.56066 39.8844 3.72069 37.2429 3.03997 34.1678C 1.68086 28.0281 1 20.363 1 13.7789L -1 13.7789ZM 53.7274 7.79615C 52.6437 7.10585 51.8146 6.64176 51.1079 6.41539C 50.3205 6.1632 49.6734 6.20135 49.0177 6.46005C 48.7275 6.57454 48.449 6.72674 48.1871 6.87657C 47.9065 7.0371 47.6502 7.19157 47.3159 7.37573C 46.6775 7.7274 45.8341 8.14042 44.5954 8.54589L 45.2176 10.4467C 46.5947 9.99585 47.553 9.52849 48.2809 9.12755C 48.6297 8.9354 48.9479 8.7455 49.1802 8.61259C 49.4313 8.46896 49.6043 8.37863 49.7517 8.3205C 49.9711 8.23395 50.143 8.20645 50.4978 8.32008C 50.9332 8.45952 51.5692 8.79271 52.6529 9.483L 53.7274 7.79615ZM 44.5954 8.54589C 43.6165 8.86632 43.1321 9.77815 42.8449 10.5055C 42.5461 11.2626 42.3124 12.2359 42.0785 13.0658C 41.8291 13.9501 41.5603 14.7576 41.1779 15.4099C 40.8055 16.0451 40.3585 16.477 39.7649 16.6957L 40.4563 18.5724C 41.6067 18.1486 42.3726 17.3267 42.9033 16.4213C 43.424 15.5331 43.7483 14.5134 44.0034 13.6085C 44.2739 12.6492 44.456 11.8713 44.7052 11.2399C 44.9662 10.5787 45.1624 10.4647 45.2176 10.4467L 44.5954 8.54589ZM 14.3875 27.0577C 15.3818 27.1646 15.3818 27.1644 15.3818 27.1641C 15.3819 27.1639 15.3819 27.1635 15.3819 27.1631C 15.382 27.1622 15.3822 27.1609 15.3823 27.1593C 15.3827 27.1561 15.3832 27.1514 15.3838 27.1453C 15.3851 27.133 15.387 27.1149 15.3895 27.0912C 15.3944 27.0438 15.4016 26.974 15.4108 26.8831C 15.4291 26.7014 15.4552 26.4355 15.4866 26.0969C 15.5495 25.4197 15.6338 24.4512 15.7198 23.2828C 15.8917 20.9477 16.071 17.8057 16.099 14.591C 16.127 11.3861 16.0052 8.06552 15.5615 5.38993C 15.3401 4.05498 15.0311 2.83231 14.5943 1.85006C 14.1677 0.890673 13.5494 0.00355521 12.6149 -0.413176L 11.8003 1.41344C 12.0668 1.53228 12.4174 1.87677 12.7668 2.66265C 13.1061 3.42565 13.3802 4.4619 13.5884 5.71714C 14.0038 8.22193 14.1267 11.4068 14.0991 14.5736C 14.0716 17.7304 13.8952 20.8262 13.7252 23.1359C 13.6402 24.2899 13.557 25.2456 13.4952 25.912C 13.4642 26.2451 13.4386 26.5059 13.4208 26.6829C 13.4119 26.7713 13.405 26.8389 13.4003 26.884C 13.3979 26.9066 13.3961 26.9235 13.3949 26.9347C 13.3944 26.9403 13.3939 26.9445 13.3936 26.9472C 13.3935 26.9485 13.3934 26.9495 13.3933 26.9501C 13.3933 26.9504 13.3933 26.9506 13.3932 26.9508C 13.3932 26.9508 13.3932 26.9508 14.3875 27.0577ZM 8.0777 46.8836C 9.37742 47.1572 11.1413 46.9256 13.1026 46.4151C 15.1027 45.8944 17.4498 45.0441 19.986 43.9496C 25.0609 41.7595 30.9724 38.557 36.5154 34.9386L 35.4221 33.2638C 29.9618 36.8283 24.1505 39.9741 19.1936 42.1133C 16.7138 43.1834 14.4677 43.993 12.5988 44.4796C 10.6909 44.9762 9.30975 45.0991 8.48973 44.9265L 8.0777 46.8836ZM 23.3528 23.7005C 21.5216 24.3884 19.7684 24.982 18.2146 25.4024C 16.6466 25.8267 15.342 26.0577 14.3875 26.0577L 14.3875 28.0577C 15.6076 28.0577 17.1141 27.7722 18.7371 27.333C 20.3745 26.8899 22.1924 26.2729 24.0562 25.5727L 23.3528 23.7005ZM 55.5521 22.7037C 56.3651 22.0647 56.8684 20.9211 57.161 19.7508C 57.4658 18.5314 57.5921 17.081 57.5034 15.6112C 57.3299 12.7374 56.3016 9.43586 53.7274 7.79615L 52.6529 9.483C 54.4135 10.6045 55.3472 13.0852 55.507 15.7317C 55.5849 17.0221 55.4706 18.2663 55.2207 19.2658C 54.9586 20.3143 54.5931 20.9136 54.3162 21.1313L 55.5521 22.7037ZM 39.7649 16.6957C 39.1587 16.919 38.2258 17.3257 37.0923 17.8316L 37.9075 19.6579C 39.0555 19.1455 39.9248 18.7682 40.4563 18.5724L 39.7649 16.6957ZM 34.5436 18.5725C 35.0752 18.7683 35.9443 19.1455 37.0923 19.6579L 37.9075 17.8316C 36.7741 17.3257 35.8412 16.9191 35.235 16.6958L 34.5436 18.5725ZM 49.7001 24.9422C 50.3441 24.8329 51.3435 24.6296 52.4011 24.2838C 53.4474 23.9418 54.6155 23.4398 55.5521 22.7037L 54.3162 21.1313C 53.6423 21.661 52.7242 22.0741 51.7797 22.3828C 50.8464 22.6879 49.9503 22.8711 49.3655 22.9704L 49.7001 24.9422ZM 49.1649 24.8862C 49.7608 25.1219 50.3552 25.3517 50.9438 25.5728L 51.6471 23.7006C 51.0705 23.484 50.4871 23.2584 49.9006 23.0264L 49.1649 24.8862ZM 36.5154 34.9386C 37.0334 34.6004 37.5485 34.2585 38.0596 33.9134L 36.9403 32.2559C 36.438 32.5951 35.9316 32.9313 35.4221 33.2638L 36.5154 34.9386ZM 39.5778 33.2639C 39.0683 32.9313 38.5619 32.5951 38.0596 32.2559L 36.9403 33.9134C 37.4514 34.2585 37.9665 34.6005 38.4846 34.9387L 39.5778 33.2639ZM 38.0596 32.2559C 34.0944 29.5781 30.3969 26.7176 27.4479 23.9122L 26.0694 25.3612C 29.1219 28.2652 32.9139 31.1943 36.9403 33.9134L 38.0596 32.2559ZM 25.099 23.0264C 24.5127 23.2584 23.9293 23.4839 23.3528 23.7005L 24.0562 25.5727C 24.6447 25.3516 25.2389 25.1219 25.8347 24.8862L 25.099 23.0264ZM 26.1696 24.0594C 26.2782 23.0653 26.2782 23.0653 26.2782 23.0653C 26.2783 23.0653 26.2783 23.0653 26.2783 23.0653C 26.2784 23.0653 26.2784 23.0653 26.2785 23.0653C 26.2786 23.0653 26.2786 23.0653 26.2787 23.0653C 26.2788 23.0653 26.2789 23.0654 26.2789 23.0654C 26.2789 23.0653 26.2786 23.0653 26.2781 23.0653C 26.277 23.0651 26.275 23.0649 26.272 23.0646C 26.2659 23.0639 26.2559 23.0627 26.2421 23.061C 26.2146 23.0576 26.1722 23.0523 26.1163 23.0447C 26.0046 23.0294 25.8397 23.0053 25.6342 22.9704L 25.2995 24.9422C 25.5287 24.9811 25.7153 25.0085 25.8462 25.0263C 25.9118 25.0353 25.9635 25.0418 25.9998 25.0463C 26.018 25.0485 26.0323 25.0502 26.0426 25.0514C 26.0477 25.052 26.0518 25.0524 26.0549 25.0528C 26.0565 25.0529 26.0578 25.0531 26.0588 25.0532C 26.0593 25.0533 26.0598 25.0533 26.0602 25.0534C 26.0603 25.0534 26.0605 25.0534 26.0607 25.0534C 26.0608 25.0534 26.0608 25.0534 26.0609 25.0534C 26.0609 25.0534 26.061 25.0534 26.061 25.0534C 26.0611 25.0535 26.0611 25.0535 26.1696 24.0594ZM 25.6342 22.9704C 25.0492 22.8711 24.1532 22.6879 23.22 22.3829C 22.2756 22.0741 21.3576 21.661 20.6838 21.1314L 19.4479 22.7038C 20.3843 23.4399 21.5523 23.9418 22.5986 24.2838C 23.6561 24.6296 24.6554 24.8329 25.2995 24.9422L 25.6342 22.9704ZM 38.0596 32.2559C 34.0944 29.5781 30.3969 26.7176 27.4479 23.9122L 26.0694 25.3612C 29.1219 28.2652 32.9139 31.1943 36.9403 33.9134L 38.0596 32.2559ZM 38.6127 20.3401L 38.8295 20.4376L 39.6498 18.6136L 39.4331 18.5161L 38.6127 20.3401ZM 38.8349 20.44L 38.835 20.44L 39.6445 18.6112L 39.6444 18.6112L 38.8349 20.44ZM 38.8296 20.4376C 41.6978 21.7276 45.4725 23.4254 49.1649 24.8862L 49.9006 23.0264C 46.2576 21.5852 42.5239 19.9062 39.6499 18.6136L 38.8296 20.4376ZM 37.0923 19.6579C 37.5521 19.8631 38.0512 20.0876 38.5852 20.3277L 39.4054 18.5037C 38.8721 18.2638 38.3703 18.0382 37.9075 17.8316L 37.0923 19.6579ZM 38.5851 20.3277L 38.6128 20.3401L 39.4331 18.5161L 39.4054 18.5037L 38.5851 20.3277ZM 38.5852 20.3277C 38.5925 20.331 38.6054 20.3368 38.6128 20.3401L 39.433 18.5161C 39.422 18.5111 39.4165 18.5087 39.4054 18.5037L 38.5852 20.3277ZM 38.8295 20.4376L 38.8296 20.4376L 39.6499 18.6136L 39.6498 18.6136L 38.8295 20.4376ZM 38.8296 20.4376C 41.6978 21.7276 45.4725 23.4254 49.1649 24.8862L 49.9006 23.0264C 46.2576 21.5852 42.5239 19.9062 39.6499 18.6136L 38.8296 20.4376Z"></path></defs></svg>